<svg width="57" height="57" viewBox="0 0 57 57" fill="none" xmlns="http://www.w3.org/2000/svg">
<g clip-path="url(#clip0_54398_83)">
<path d="M27.5691 52C41.1001 52 52.0691 41.031 52.0691 27.5C52.0691 13.969 41.1001 3 27.5691 3C14.0381 3 3.06912 13.969 3.06912 27.5C3.06912 41.031 14.0381 52 27.5691 52Z" fill="#5199BA" stroke="#B5DEF5" stroke-width="4.78" stroke-miterlimit="10"/>
<path d="M41.5425 30.0142C37.0439 29.9843 32.5452 29.947 28.0466 29.9172C25.7637 28.634 24.115 26.8584 23.0705 24.6203C24.2716 22.0838 25.51 19.6293 27.6736 18.7415H41.535C44.646 18.7415 47.1751 21.2631 47.1751 24.3816C47.1751 27.5 44.6535 30.0216 41.535 30.0216L41.5425 30.0142Z" stroke="#B5DEF5" stroke-width="4" stroke-miterlimit="10"/>
<path d="M5.91901 16.4586H15.155L21.75 24.3741L12.2753 38.049H50.8979" stroke="#B5DEF5" stroke-width="4" stroke-miterlimit="10"/>
</g>
<defs>
<clipPath id="clip0_54398_83">
<rect width="56.8618" height="56.8618" fill="white" transform="translate(0.0691223)"/>
</clipPath>
</defs>
</svg>
