<svg width="60" height="60" viewBox="0 0 584 584" fill="none" xmlns="http://www.w3.org/2000/svg">
<path d="M160 132H424C443.882 132 460 148.118 460 168V432C460 451.882 443.882 468 424 468H160C140.118 468 124 451.882 124 432V168C124 148.118 140.118 132 160 132Z" fill="white" stroke="#D5E1F4" stroke-width="8"/>
<path d="M460 204H459.95H459.896H459.842H459.788H459.734H459.679H459.624H459.569H459.513H459.457H459.401H459.344H459.287H459.23H459.172H459.114H459.056H458.998H458.939H458.88H458.82H458.76H458.7H458.64H458.579H458.518H458.457H458.396H458.334H458.272H458.209H458.146H458.083H458.02H457.956H457.892H457.828H457.763H457.698H457.633H457.568H457.502H457.436H457.369H457.303H457.236H457.169H457.101H457.033H456.965H456.897H456.828H456.759H456.69H456.62H456.55H456.48H456.41H456.339H456.268H456.197H456.125H456.053H455.981H455.909H455.836H455.763H455.69H455.616H455.543H455.469H455.394H455.32H455.245H455.169H455.094H455.018H454.942H454.866H454.789H454.713H454.635H454.558H454.48H454.403H454.324H454.246H454.167H454.088H454.009H453.929H453.85H453.77H453.689H453.609H453.528H453.447H453.365H453.284H453.202H453.12H453.037H452.955H452.872H452.789H452.705H452.622H452.538H452.453H452.369H452.284H452.199H452.114H452.029H451.943H451.857H451.771H451.684H451.598H451.511H451.423H451.336H451.248H451.16H451.072H450.984H450.895H450.806H450.717H450.628H450.538H450.448H450.358H450.268H450.177H450.086H449.995H449.904H449.812H449.72H449.628H449.536H449.444H449.351H449.258H449.165H449.071H448.978H448.884H448.79H448.695H448.601H448.506H448.411H448.316H448.22H448.125H448.029H447.933H447.836H447.74H447.643H447.546H447.449H447.351H447.253H447.155H447.057H446.959H446.86H446.762H446.663H446.563H446.464H446.364H446.265H446.164H446.064H445.964H445.863H445.762H445.661H445.56H445.458H445.356H445.254H445.152H445.05H444.947H444.844H444.741H444.638H444.535H444.431H444.327H444.223H444.119H444.015H443.91H443.805H443.7H443.595H443.49H443.384H443.279H443.173H443.066H442.96H442.853H442.747H442.64H442.533H442.425H442.318H442.21H442.102H441.994H441.886H441.777H441.669H441.56H441.451H441.342H441.232H441.123H441.013H440.903H440.793H440.683H440.572H440.461H440.351H440.24H440.128H440.017H439.905H439.794H439.682H439.57H439.458H439.345H439.233H439.12H439.007H438.894H438.78H438.667H438.553H438.44H438.326H438.211H438.097H437.983H437.868H437.753H437.638H437.523H437.408H437.293H437.177H437.061H436.945H436.829H436.713H436.597H436.48H436.363H436.246H436.129H436.012H435.895H435.777H435.66H435.542H435.424H435.306H435.187H435.069H434.951H434.832H434.713H434.594H434.475H434.355H434.236H434.116H433.997H433.877H433.757H433.637H433.516H433.396H433.275H433.154H433.033H432.912H432.791H432.67H432.549H432.427H432.305H432.183H432.061H431.939H431.817H431.695H431.572H431.449H431.327H431.204H431.081H430.957H430.834H430.711H430.587H430.463H430.34H430.216H430.092H429.967H429.843H429.719H429.594H429.469H429.345H429.22H429.095H428.969H428.844H428.719H428.593H428.467H428.342H428.216H428.09H427.964H427.837H427.711H427.585H427.458H427.331H427.205H427.078H426.951H426.823H426.696H426.569H426.441H426.314H426.186H426.058H425.931H425.803H425.674H425.546H425.418H425.29H425.161H425.032H424.904H424.775H424.646H424.517H424.388H424.259H424.129H424H160H159.871H159.741H159.612H159.483H159.354H159.225H159.096H158.968H158.839H158.71H158.582H158.454H158.326H158.197H158.069H157.942H157.814H157.686H157.559H157.431H157.304H157.177H157.049H156.922H156.795H156.669H156.542H156.415H156.289H156.163H156.036H155.91H155.784H155.658H155.533H155.407H155.281H155.156H155.031H154.905H154.78H154.655H154.531H154.406H154.281H154.157H154.033H153.908H153.784H153.66H153.537H153.413H153.289H153.166H153.043H152.919H152.796H152.673H152.551H152.428H152.305H152.183H152.061H151.939H151.817H151.695H151.573H151.451H151.33H151.209H151.088H150.967H150.846H150.725H150.604H150.484H150.363H150.243H150.123H150.003H149.884H149.764H149.645H149.525H149.406H149.287H149.168H149.05H148.931H148.813H148.694H148.576H148.458H148.34H148.223H148.105H147.988H147.871H147.754H147.637H147.52H147.403H147.287H147.171H147.055H146.939H146.823H146.707H146.592H146.477H146.362H146.247H146.132H146.017H145.903H145.788H145.674H145.56H145.447H145.333H145.22H145.106H144.993H144.88H144.767H144.655H144.542H144.43H144.318H144.206H144.094H143.983H143.872H143.76H143.649H143.539H143.428H143.317H143.207H143.097H142.987H142.877H142.768H142.658H142.549H142.44H142.331H142.223H142.114H142.006H141.898H141.79H141.682H141.575H141.467H141.36H141.253H141.147H141.04H140.934H140.827H140.721H140.616H140.51H140.405H140.3H140.195H140.09H139.985H139.881H139.777H139.673H139.569H139.465H139.362H139.259H139.156H139.053H138.95H138.848H138.746H138.644H138.542H138.44H138.339H138.238H138.137H138.036H137.936H137.836H137.735H137.636H137.536H137.437H137.337H137.238H137.14H137.041H136.943H136.845H136.747H136.649H136.551H136.454H136.357H136.26H136.164H136.067H135.971H135.875H135.78H135.684H135.589H135.494H135.399H135.305H135.21H135.116H135.022H134.929H134.835H134.742H134.649H134.556H134.464H134.372H134.28H134.188H134.096H134.005H133.914H133.823H133.732H133.642H133.552H133.462H133.372H133.283H133.194H133.105H133.016H132.928H132.84H132.752H132.664H132.577H132.489H132.402H132.316H132.229H132.143H132.057H131.971H131.886H131.801H131.716H131.631H131.547H131.462H131.378H131.295H131.211H131.128H131.045H130.963H130.88H130.798H130.716H130.635H130.553H130.472H130.391H130.311H130.23H130.15H130.071H129.991H129.912H129.833H129.754H129.676H129.597H129.52H129.442H129.365H129.287H129.211H129.134H129.058H128.982H128.906H128.831H128.755H128.68H128.606H128.531H128.457H128.384H128.31H128.237H128.164H128.091H128.019H127.947H127.875H127.803H127.732H127.661H127.59H127.52H127.45H127.38H127.31H127.241H127.172H127.103H127.035H126.967H126.899H126.831H126.764H126.697H126.631H126.564H126.498H126.432H126.367H126.302H126.237H126.172H126.108H126.044H125.98H125.917H125.854H125.791H125.728H125.666H125.604H125.543H125.482H125.421H125.36H125.3H125.239H125.18H125.12H125.061H125.002H124.944H124.886H124.828H124.77H124.713H124.656H124.599H124.543H124.487H124.431H124.376H124.321H124.266H124.212H124.158H124.104H124.05H124V168C124 148.118 140.118 132 160 132H424C443.882 132 460 148.118 460 168V204Z" fill="#ABD0FC" stroke="#80B5FF" stroke-width="8"/>
<circle cx="175" cy="168" r="16" fill="#75AFFF"/>
<circle cx="253" cy="168" r="16" fill="#75AFFF"/>
<circle cx="331" cy="168" r="16" fill="#75AFFF"/>
<circle cx="409" cy="168" r="16" fill="#75AFFF"/>
<path d="M167 120C167 115.582 170.582 112 175 112V112C179.418 112 183 115.582 183 120V168C183 172.418 179.418 176 175 176V176C170.582 176 167 172.418 167 168V120Z" fill="white"/>
<path d="M245 120C245 115.582 248.582 112 253 112V112C257.418 112 261 115.582 261 120V168C261 172.418 257.418 176 253 176V176C248.582 176 245 172.418 245 168V120Z" fill="white"/>
<path d="M323 120C323 115.582 326.582 112 331 112V112C335.418 112 339 115.582 339 120V168C339 172.418 335.418 176 331 176V176C326.582 176 323 172.418 323 168V120Z" fill="white"/>
<path d="M401 120C401 115.582 404.582 112 409 112V112C413.418 112 417 115.582 417 120V168C417 172.418 413.418 176 409 176V176C404.582 176 401 172.418 401 168V120Z" fill="white"/>
<rect x="196" y="244" width="32" height="32" rx="8" fill="#D5E1F4"/>
<rect x="196" y="284" width="32" height="32" rx="8" fill="#D5E1F4"/>
<rect x="156" y="284" width="32" height="32" rx="8" fill="#D5E1F4"/>
<rect x="196" y="324" width="32" height="32" rx="8" fill="#D5E1F4"/>
<rect x="156" y="324" width="32" height="32" rx="8" fill="#D5E1F4"/>
<rect x="196" y="364" width="32" height="32" rx="8" fill="#D5E1F4"/>
<rect x="156" y="364" width="32" height="32" rx="8" fill="#D5E1F4"/>
<rect x="196" y="404" width="32" height="32" rx="8" fill="#D5E1F4"/>
<rect x="156" y="404" width="32" height="32" rx="8" fill="#D5E1F4"/>
<rect x="236" y="244" width="32" height="32" rx="8" fill="#D5E1F4"/>
<rect x="236" y="284" width="32" height="32" rx="8" fill="#D5E1F4"/>
<rect x="236" y="324" width="32" height="32" rx="8" fill="#D5E1F4"/>
<rect x="236" y="364" width="32" height="32" rx="8" fill="#D5E1F4"/>
<rect x="236" y="404" width="32" height="32" rx="8" fill="#D5E1F4"/>
<rect x="276" y="244" width="32" height="32" rx="8" fill="#D5E1F4"/>
<rect x="276" y="284" width="32" height="32" rx="8" fill="#D5E1F4"/>
<rect x="276" y="324" width="32" height="32" rx="8" fill="#D5E1F4"/>
<rect x="276" y="364" width="32" height="32" rx="8" fill="#D5E1F4"/>
<rect x="276" y="404" width="32" height="32" rx="8" fill="#D5E1F4"/>
<rect x="316" y="244" width="32" height="32" rx="8" fill="#D5E1F4"/>
<rect x="316" y="284" width="32" height="32" rx="8" fill="#D5E1F4"/>
<rect x="316" y="324" width="32" height="32" rx="8" fill="#D5E1F4"/>
<rect x="316" y="364" width="32" height="32" rx="8" fill="#D5E1F4"/>
<rect x="356" y="244" width="32" height="32" rx="8" fill="#7AB4FA"/>
<rect x="356" y="284" width="32" height="32" rx="8" fill="#7AB4FA"/>
<rect x="356" y="324" width="32" height="32" rx="8" fill="#7AB4FA"/>
<rect x="356" y="364" width="32" height="32" rx="8" fill="#7AB4FA"/>
<rect x="396" y="244" width="32" height="32" rx="8" fill="#7AB4FA"/>
<rect x="396" y="284" width="32" height="32" rx="8" fill="#7AB4FA"/>
<rect x="396" y="324" width="32" height="32" rx="8" fill="#7AB4FA"/>
<rect x="396" y="364" width="32" height="32" rx="8" fill="#7AB4FA"/>
</svg>
